<svg width="24" height="24" viewBox="0 0 24 24" fill="none" xmlns="http://www.w3.org/2000/svg">
<path d="M17 5H7C6.4477 5 6 5.4477 6 6V21C6 21.5523 6.4477 22 7 22H17C17.5523 22 18 21.5523 18 21V6C18 5.4477 17.5523 5 17 5Z" fill="#1C1B1E"/>
<path fill-rule="evenodd" clip-rule="evenodd" d="M5.25 6C5.25 5.03349 6.03349 4.25 7 4.25H17C17.9665 4.25 18.75 5.03349 18.75 6V21C18.75 21.9665 17.9665 22.75 17 22.75H7C6.03349 22.75 5.25 21.9665 5.25 21V6ZM7 5.75C6.86191 5.75 6.75 5.86191 6.75 6V21C6.75 21.1381 6.86191 21.25 7 21.25H17C17.1381 21.25 17.25 21.1381 17.25 21V6C17.25 5.86191 17.1381 5.75 17 5.75H7Z" fill="#1C1B1E"/>
<path fill-rule="evenodd" clip-rule="evenodd" d="M5.25 9C5.25 8.58579 5.58579 8.25 6 8.25H18C18.4142 8.25 18.75 8.58579 18.75 9C18.75 9.41421 18.4142 9.75 18 9.75H6C5.58579 9.75 5.25 9.41421 5.25 9Z" fill="#FFFBFF"/>
<path fill-rule="evenodd" clip-rule="evenodd" d="M6 6.75C6.41421 6.75 6.75 7.08579 6.75 7.5V10.5C6.75 10.9142 6.41421 11.25 6 11.25C5.58579 11.25 5.25 10.9142 5.25 10.5V7.5C5.25 7.08579 5.58579 6.75 6 6.75Z" fill="#1C1B1E"/>
<path fill-rule="evenodd" clip-rule="evenodd" d="M18 6.75C18.4142 6.75 18.75 7.08579 18.75 7.5V10.5C18.75 10.9142 18.4142 11.25 18 11.25C17.5858 11.25 17.25 10.9142 17.25 10.5V7.5C17.25 7.08579 17.5858 6.75 18 6.75Z" fill="#1C1B1E"/>
<path d="M16 2H8V5H16V2Z" fill="#1C1B1E"/>
<path fill-rule="evenodd" clip-rule="evenodd" d="M7.25 2C7.25 1.58579 7.58579 1.25 8 1.25H16C16.4142 1.25 16.75 1.58579 16.75 2V5C16.75 5.41421 16.4142 5.75 16 5.75H8C7.58579 5.75 7.25 5.41421 7.25 5V2ZM8.75 2.75V4.25H15.25V2.75H8.75Z" fill="#1C1B1E"/>
<path fill-rule="evenodd" clip-rule="evenodd" d="M9.25 15.5C9.25 15.0858 9.58579 14.75 10 14.75H14C14.4142 14.75 14.75 15.0858 14.75 15.5C14.75 15.9142 14.4142 16.25 14 16.25H10C9.58579 16.25 9.25 15.9142 9.25 15.5Z" fill="#FFFBFF"/>
<path fill-rule="evenodd" clip-rule="evenodd" d="M12 12.75C12.4142 12.75 12.75 13.0858 12.75 13.5V17.5C12.75 17.9142 12.4142 18.25 12 18.25C11.5858 18.25 11.25 17.9142 11.25 17.5V13.5C11.25 13.0858 11.5858 12.75 12 12.75Z" fill="#FFFBFF"/>
</svg>
