<svg width="24" height="24" viewBox="0 0 24 24" fill="none" xmlns="http://www.w3.org/2000/svg">
<path d="M22 5.5C22 4.67158 21.3284 4 20.5 4H3.5C2.67158 4 2 4.67158 2 5.5V10H22V5.5Z" fill="#1C1B1E"/>
<path fill-rule="evenodd" clip-rule="evenodd" d="M1.25 5.5C1.25 4.25736 2.25736 3.25 3.5 3.25H20.5C21.7427 3.25 22.75 4.25737 22.75 5.5V10C22.75 10.4142 22.4142 10.75 22 10.75H2C1.58579 10.75 1.25 10.4142 1.25 10V5.5ZM3.5 4.75C3.08579 4.75 2.75 5.08579 2.75 5.5V9.25H21.25V5.5C21.25 5.08578 20.9142 4.75 20.5 4.75H3.5Z" fill="#1C1B1E"/>
<path fill-rule="evenodd" clip-rule="evenodd" d="M14.9617 12.4353C15.2561 12.178 15.6988 12.19 15.9788 12.463L18.219 14.647C18.5156 14.9361 18.5217 15.411 18.2325 15.7075C17.9434 16.0041 17.4685 16.0102 17.172 15.721L15.4275 14.0204L11.9272 17.0798C11.6347 17.3354 11.1954 17.3254 10.9149 17.0567L8.15801 14.4166L2.58919 20.0427C2.2978 20.3371 1.82293 20.3395 1.52854 20.0481C1.23415 19.7567 1.23173 19.2818 1.52312 18.9874L7.61092 12.837C7.89891 12.5461 8.36702 12.5398 8.66269 12.823L11.4567 15.4987L14.9617 12.4353Z" fill="#1C1B1E"/>
<path fill-rule="evenodd" clip-rule="evenodd" d="M22 8.25C22.4142 8.25 22.75 8.58579 22.75 9V18.5C22.75 19.7427 21.7427 20.75 20.5 20.75H6C5.58579 20.75 5.25 20.4142 5.25 20C5.25 19.5858 5.58579 19.25 6 19.25H20.5C20.9142 19.25 21.25 18.9142 21.25 18.5V9C21.25 8.58579 21.5858 8.25 22 8.25Z" fill="#1C1B1E"/>
<path fill-rule="evenodd" clip-rule="evenodd" d="M8.80566 7C8.80566 6.58579 9.14145 6.25 9.55566 6.25H18.5557C18.9699 6.25 19.3057 6.58579 19.3057 7C19.3057 7.41421 18.9699 7.75 18.5557 7.75H9.55566C9.14145 7.75 8.80566 7.41421 8.80566 7Z" fill="#FFFBFF"/>
<path fill-rule="evenodd" clip-rule="evenodd" d="M4.80518 7C4.80518 6.58579 5.14096 6.25 5.55518 6.25H6.55518C6.96939 6.25 7.30518 6.58579 7.30518 7C7.30518 7.41421 6.96939 7.75 6.55518 7.75H5.55518C5.14096 7.75 4.80518 7.41421 4.80518 7Z" fill="#FFFBFF"/>
<path fill-rule="evenodd" clip-rule="evenodd" d="M2 8.25C2.41421 8.25 2.75 8.58579 2.75 9V13.5C2.75 13.9142 2.41421 14.25 2 14.25C1.58579 14.25 1.25 13.9142 1.25 13.5V9C1.25 8.58579 1.58579 8.25 2 8.25Z" fill="#1C1B1E"/>
</svg>
