<svg width="24" height="24" viewBox="0 0 24 24" fill="none" xmlns="http://www.w3.org/2000/svg">
<path d="M16.5 2.5H2.5V21.5H16.5V2.5Z" fill="#1C1B1E"/>
<path fill-rule="evenodd" clip-rule="evenodd" d="M1.75 2.5C1.75 2.08579 2.08579 1.75 2.5 1.75H16.5C16.9142 1.75 17.25 2.08579 17.25 2.5V21.5C17.25 21.9142 16.9142 22.25 16.5 22.25H2.5C2.08579 22.25 1.75 21.9142 1.75 21.5V2.5ZM3.25 3.25V20.75H15.75V3.25H3.25Z" fill="#1C1B1E"/>
<path fill-rule="evenodd" clip-rule="evenodd" d="M15.75 10.5C15.75 10.0858 16.0858 9.75 16.5 9.75H21.5C21.9142 9.75 22.25 10.0858 22.25 10.5V21.5C22.25 21.9142 21.9142 22.25 21.5 22.25H16.5C16.0858 22.25 15.75 21.9142 15.75 21.5C15.75 21.0858 16.0858 20.75 16.5 20.75H20.75V11.25H16.5C16.0858 11.25 15.75 10.9142 15.75 10.5Z" fill="#1C1B1E"/>
<path fill-rule="evenodd" clip-rule="evenodd" d="M5.75 10.5C5.75 10.0858 6.08579 9.75 6.5 9.75H12.5C12.9142 9.75 13.25 10.0858 13.25 10.5C13.25 10.9142 12.9142 11.25 12.5 11.25H6.5C6.08579 11.25 5.75 10.9142 5.75 10.5Z" fill="#FFFBFF"/>
<path fill-rule="evenodd" clip-rule="evenodd" d="M9.5 6.75C9.91421 6.75 10.25 7.08579 10.25 7.5V13.5C10.25 13.9142 9.91421 14.25 9.5 14.25C9.08579 14.25 8.75 13.9142 8.75 13.5V7.5C8.75 7.08579 9.08579 6.75 9.5 6.75Z" fill="#FFFBFF"/>
</svg>
